:SAMPLES-PER-SECOND 30
:FRAME-RANGE 1-4244
:FULLY-SPECIFIED
:DEGREES
398
root  15.5344 34.7749 49.6146 -151.994 -16.0468 -177.154
RightUpLeg  -46.754 9.96067 -29.5974
RightLeg  36.521 4.35734 3.21248
RightFoot  -22.1818 2.284 25.2878
RightToes  -1.33073e-015 0 -3.6325e-017
Spine  31.7329 -2.5694 -9.14536
Spine1  20.9258 -3.63419 -2.20167
HEad  64.8359 20.3635 3.87607
LeftShoulder1  0.293828 0.720369 -3.57878
LeftArm  -35.4309 -10.4054 -57.9421
LeftForeArm  46.3971 -62.6976 -17.266
LeftHand  0.0245521 6.04026 8.47252
RightShoulder  1.20004 4.56091 7.77393
RightArm  -13.8394 -0.124708 66.0465
RightForeArm  42.0337 32.4434 4.79604
RightHand  -0.0181621 -5.3627 -15.5686
LeftUpLeg  -61.025 13.0505 12.218
LeftLeg  46.0699 3.16478 3.96224
LeftFoot  -8.49715 0.438063 -15.5242
LeftToes  2.72522e-012 8.43823e-011 6.24977e-012
399
root  15.2506 35.5197 49.4359 -151.726 -15.9815 -176.835
RightUpLeg  -43.6346 9.06631 -28.09
RightLeg  30.4647 3.46624 1.9756
RightFoot  -18.6034 1.50997 25.4101
RightToes  -1.33073e-015 0 -3.6325e-017
Spine  31.3325 -2.84087 -9.42236
Spine1  21.8946 -4.19038 -2.00687
HEad  63.7062 20.1934 1.94671
LeftShoulder1  0.102137 2.38535 -3.28672
LeftArm  -33.8336 -9.72655 -59.2408
LeftForeArm  47.5165 -63.8694 -18.1988
LeftHand  0.0344873 6.20717 8.28174
RightShoulder  0.956126 3.23442 7.01384
RightArm  -11.378 -2.0387 68.4031
RightForeArm  42.9196 38.3606 6.23844
RightHand  0.0524144 -5.94939 -14.4356
LeftUpLeg  -58.3544 11.9173 12.5529
LeftLeg  41.5897 4.64492 4.81915
LeftFoot  -7.0203 0.617515 -15.1837
LeftToes  2.72522e-012 8.43823e-011 6.24977e-012
400
root  15.1248 36.0825 49.2809 -152.284 -15.0699 -175.55
RightUpLeg  -41.696 7.97231 -25.1286
RightLeg  26.6657 3.29768 1.58412
RightFoot  -15.1396 0.749193 25.3343
RightToes  -1.33073e-015 0 -3.6325e-017
Spine  30.4322 -2.68619 -9.44835
Spine1  22.5306 -3.84896 -2.3371
HEad  62.4378 20.5147 -0.780674
LeftShoulder1  -0.0384305 3.64969 -3.25224
LeftArm  -32.3341 -8.11565 -60.37
LeftForeArm  48.1501 -64.9806 -19.224
LeftHand  0.0335996 6.19043 8.31114
RightShoulder  0.752543 1.76298 7.19623
RightArm  -8.49198 -5.68085 69.0141
RightForeArm  43.4888 45.8717 8.499
RightHand  0.237114 -7.52869 -14.0431
LeftUpLeg  -55.5496 12.1796 13.8045
LeftLeg  38.3988 5.82925 5.33193
LeftFoot  -5.94997 0.755485 -15.2169
LeftToes  2.72522e-012 8.43823e-011 6.24977e-012
401
root  15.0574 36.5256 49.1537 -153.23 -14.294 -174.556
RightUpLeg  -40.2954 6.09782 -22.1654
RightLeg  25.0224 4.32908 1.99102
RightFoot  -12.1689 0.101959 25.2955
RightToes  -1.33073e-015 0 -3.6325e-017
Spine  29.8286 -2.72263 -9.20374
Spine1  22.7921 -3.4896 -3.27144
HEad  60.43 21.1902 -4.00103
LeftShoulder1  -0.12598 4.46704 -2.93765
LeftArm  -31.3221 -6.08438 -61.0641
LeftForeArm  48.1108 -66.094 -20.4466
LeftHand  0.0235017 6.05098 8.21323
RightShoulder  0.578203 0.263001 8.5925
RightArm  -6.11507 -10.0423 68.3749
RightForeArm  45.0391 53.8721 11.6773
RightHand  0.422914 -9.21795 -13.6185
LeftUpLeg  -52.6692 11.8786 15.2049
LeftLeg  35.8598 7.15692 5.90875
LeftFoot  -5.01464 0.887652 -15.4416
LeftToes  2.72522e-012 8.43823e-011 6.24977e-012
402
root  15.0825 36.7855 49.0584 -153.018 -13.2607 -174.749
RightUpLeg  -41.275 3.7236 -21.1964
RightLeg  26.0601 7.12922 3.57003
RightFoot  -10.0665 -0.350539 24.9168
RightToes  -1.33073e-015 0 -3.6325e-017
Spine  27.8798 -2.66848 -9.95674
Spine1  23.274 -3.22348 -4.07181
HEad  57.5106 21.7 -6.79296
LeftShoulder1  -0.1566 4.86922 -2.00112
LeftArm  -30.7719 -3.91097 -62.0986
LeftForeArm  48.8122 -67.3322 -21.8682
LeftHand  0.0154482 5.94157 8.08559
RightShoulder  0.408501 -0.940688 9.58169
RightArm  -5.0295 -14.7428 68.339
RightForeArm  47.5262 60.4926 15.4048
RightHand  0.692768 -11.2261 -14.3328
LeftUpLeg  -51.0793 11.1914 15.5199
LeftLeg  33.9126 8.83491 6.71125
LeftFoot  -4.15449 1.02039 -15.7702
LeftToes  2.72522e-012 8.43823e-011 6.24977e-012
403
root  15.2157 36.8717 48.9897 -151.945 -12.2734 -175.625
RightUpLeg  -44.193 1.23579 -21.3988
RightLeg  29.374 10.362 6.03949
RightFoot  -8.63768 -0.66445 25.2503
RightToes  -1.33073e-015 0 -3.6325e-017
Spine  25.006 -2.55956 -11.2598
Spine1  24.0524 -2.9954 -4.51997
HEad  53.8668 21.6847 -9.58863
LeftShoulder1  -0.164395 4.94958 -1.9839
LeftArm  -30.0883 -2.76322 -61.6609
LeftForeArm  49.6766 -68.446 -23.2789
LeftHand  0.0179381 6.01229 7.75827
RightShoulder  0.267522 -1.84853 10.4215
RightArm  -3.75588 -18.5204 68.0006
RightForeArm  51.3599 65.0694 18.9334
RightHand  0.783869 -11.8195 -14.6496
LeftUpLeg  -50.843 10.9895 14.8746
LeftLeg  32.581 9.97271 7.1634
LeftFoot  -3.43818 1.13664 -16.0692
LeftToes  2.72522e-012 8.43823e-011 6.24977e-012
404
root  15.4921 36.8125 48.9618 -151.434 -12.2946 -176.418
RightUpLeg  -47.0192 -1.05622 -21.3786
RightLeg  34.0624 12.8028 8.93844
RightFoot  -7.93163 -0.798774 24.6431
RightToes  -1.33073e-015 0 -3.6325e-017
Spine  23.6995 -3.05853 -11.5635
Spine1  23.769 -2.88736 -6.00445
HEad  49.2589 21.5603 -10.6845
LeftShoulder1  -0.187786 5.22348 -1.74849
LeftArm  -29.3761 -2.57443 -60.3457
LeftForeArm  49.9125 -68.7707 -23.7265
LeftHand  0.0102214 5.91322 7.49291
RightShoulder  0.141495 -2.59687 11.2055
RightArm  -1.70305 -20.6625 67.8879
RightForeArm  54.4522 67.4045 21.1963
RightHand  0.775912 -11.633 -14.9201
LeftUpLeg  -51.0644 11.3633 14.1996
LeftLeg  31.9258 9.62712 6.77168
LeftFoot  -3.03131 1.21338 -16.3601
LeftToes  2.72522e-012 8.43823e-011 6.24977e-012
405
root  15.9241 36.6059 48.9444 -151.414 -13.2706 -176.886
RightUpLeg  -49.1403 -1.4714 -21.4551
RightLeg  38.8608 12.6631 10.4916
RightFoot  -9.774 -0.381196 22.6844
RightToes  -1.33073e-015 0 -3.6325e-017
Spine  23.7008 -2.73601 -11.8647
Spine1  22.8853 -2.96126 -5.17665
HEad  45.0243 20.5794 -11.9795
LeftShoulder1  -0.177328 5.03773 -2.25278
LeftArm  -28.7574 -4.01918 -59.4143
LeftForeArm  50.1755 -68.2887 -22.9772
LeftHand  0.00556869 5.89433 6.85568
RightShoulder  -0.0125633 -3.45202 10.2729
RightArm  -0.269542 -21.9401 68.6376
RightForeArm  55.3125 67.8635 21.6714
RightHand  0.990204 -12.2433 -17.1
LeftUpLeg  -51.7654 12.0562 14.139
LeftLeg  32.1539 7.74118 5.57953
LeftFoot  -2.90363 1.25684 -16.7033
LeftToes  2.72522e-012 8.43823e-011 6.24977e-012
406
root  16.4874 36.225 48.9269 -151.88 -14.9904 -176.788
RightUpLeg  -49.9247 -1.18932 -20.7095
RightLeg  42.0558 10.1078 9.36824
RightFoot  -15.4549 0.59473 19.3313
RightToes  -1.33073e-015 0 -3.6325e-017
Spine  25.2008 -2.92363 -10.4921
Spine1  20.7578 -2.81758 -5.88993
HEad  41.4442 19.3866 -12.5125
LeftShoulder1  -0.0925667 4.24002 -1.87172
LeftArm  -29.0367 -5.42831 -58.3229
LeftForeArm  50.3375 -67.9102 -22.4238
LeftHand  -0.00422104 5.76453 6.24032
RightShoulder  -0.022102 -3.50968 10.0542
RightArm  0.360006 -21.9622 69.4343
RightForeArm  54.3764 66.0651 19.6285
RightHand  1.06458 -12.0104 -18.89
LeftUpLeg  -52.7018 11.9839 15.8629
LeftLeg  33.3707 5.16927 4.02564
LeftFoot  -3.33261 1.27096 -17.7501
LeftToes  2.72522e-012 8.43823e-011 6.24977e-012
407
root  17.0695 35.7625 48.9157 -153.14 -16.7088 -175.755
RightUpLeg  -49.9312 0.476741 -19.1039
RightLeg  43.217 3.69839 3.42761
RightFoot  -12.7344 0.139661 18.5007
RightToes  -1.33073e-015 0 -3.6325e-017
Spine  27.4766 -2.87395 -7.87355
Spine1  18.812 -2.2502 -6.4976
HEad  39.7386 18.4519 -11.1823
LeftShoulder1  0.0910104 2.38578 -1.92046
LeftArm  -29.5443 -7.89963 -55.4805
LeftForeArm  48.1991 -66.6307 -21.0702
LeftHand  -0.0158787 5.53227 6.15011
RightShoulder  0.0905904 -2.83327 9.1904
RightArm  -0.128338 -20.9056 70.4924
RightForeArm  52.7285 63.0968 16.9318
RightHand  1.24237 -12.4559 -20.4997
LeftUpLeg  -53.1365 11.2443 19.7367
LeftLeg  35.261 2.19139 2.04025
LeftFoot  -4.32623 1.25786 -19.9243
LeftToes  2.72522e-012 8.43823e-011 6.24977e-012
408
root  17.8702 34.8814 48.8436 -155.598 -19.0889 -175.248
RightUpLeg  -47.8514 3.81778 -18.9645
RightLeg  45.6899 1.29571 1.11516
RightFoot  -19.1871 1.57827 24.5773
RightToes  -1.33073e-015 0 -3.6325e-017
Spine  31.4433 -3.70282 -5.11568
Spine1  15.5639 -1.65383 -9.35853
HEad  38.093 17.4004 -9.15576
LeftShoulder1  0.291009 -0.0879394 -0.413248
LeftArm  -30.1105 -9.60855 -53.6907
LeftForeArm  46.8785 -65.6853 -20.1418
LeftHand  -0.0210136 5.42327 6.25993
RightShoulder  0.45104 -0.717581 9.81183
RightArm  -0.52908 -19.6832 69.2027
RightForeArm  51.1654 60.1382 14.8045
RightHand  1.05803 -11.63 -19.8588
LeftUpLeg  -53.5061 9.04182 24.7021
LeftLeg  38.9004 -1.70776 -1.08394
LeftFoot  -6.65417 0.971484 -22.5092
LeftToes  2.72522e-012 8.43823e-011 6.24977e-012
409
root  18.5343 33.974 48.8621 -155.57 -20.797 -177.631
RightUpLeg  -48.3752 3.48937 -20.6632
RightLeg  50.2714 0.551761 0.363782
RightFoot  -25.2289 2.78883 23.9926
RightToes  -1.33073e-015 0 -3.6325e-017
Spine  32.9906 -3.13317 -4.84775
Spine1  13.617 -1.69258 -8.32813
HEad  38.451 14.8318 -7.82509
LeftShoulder1  0.709249 -4.57184 -0.906635
LeftArm  -30.3711 -12.232 -50.5242
LeftForeArm  45.7317 -63.3446 -17.9154
LeftHand  -0.0369373 5.09187 5.96382
RightShoulder  0.916135 2.22724 9.15218
RightArm  -2.97769 -19.6864 67.8798
RightForeArm  50.6674 57.8639 13.3817
RightHand  0.973041 -11.4355 -18.9356
LeftUpLeg  -54.5784 4.68525 27.3696
LeftLeg  40.38 -4.01083 -3.25421
LeftFoot  -9.46694 0.455803 -24.1
LeftToes  2.72522e-012 8.43823e-011 6.24977e-012
